<svg width="154" height="60" viewBox="0 0 154 60" fill="none" xmlns="http://www.w3.org/2000/svg">
<rect x="1.5" y="1.5" width="151" height="57" rx="28.5" fill="#FBA457" stroke="#F2F0FE" stroke-width="3"/>
<path d="M61.664 24.8V36H59.072V31.408H53.984V36H51.392V24.8H53.984V29.216H59.072V24.8H61.664ZM67.6221 27.264C68.9555 27.264 69.9795 27.584 70.6941 28.224C71.4088 28.8533 71.7661 29.808 71.7661 31.088V36H69.4301V34.928C68.9608 35.728 68.0861 36.128 66.8061 36.128C66.1448 36.128 65.5688 36.016 65.0781 35.792C64.5981 35.568 64.2301 35.2587 63.9741 34.864C63.7181 34.4693 63.5901 34.0213 63.5901 33.52C63.5901 32.72 63.8888 32.0907 64.4861 31.632C65.0941 31.1733 66.0275 30.944 67.2861 30.944H69.2701C69.2701 30.4 69.1048 29.984 68.7741 29.696C68.4435 29.3973 67.9475 29.248 67.2861 29.248C66.8275 29.248 66.3741 29.3227 65.9261 29.472C65.4888 29.6107 65.1155 29.8027 64.8061 30.048L63.9101 28.304C64.3795 27.9733 64.9395 27.7173 65.5901 27.536C66.2515 27.3547 66.9288 27.264 67.6221 27.264ZM67.4301 34.448C67.8568 34.448 68.2355 34.352 68.5661 34.16C68.8968 33.9573 69.1315 33.664 69.2701 33.28V32.4H67.5581C66.5341 32.4 66.0221 32.736 66.0221 33.408C66.0221 33.728 66.1448 33.984 66.3901 34.176C66.6461 34.3573 66.9928 34.448 67.4301 34.448ZM73.9344 27.392H76.4144V32.512L80.6064 27.392H82.8944V36H80.4144V30.88L76.2384 36H73.9344V27.392ZM78.2544 26.464C76.377 26.464 75.433 25.6373 75.4224 23.984H77.0544C77.065 24.3573 77.1664 24.6507 77.3584 24.864C77.561 25.0667 77.8544 25.168 78.2384 25.168C78.6224 25.168 78.9157 25.0667 79.1184 24.864C79.3317 24.6507 79.4384 24.3573 79.4384 23.984H81.1024C81.0917 25.6373 80.1424 26.464 78.2544 26.464ZM92.5258 29.44H89.6138V36H87.1338V29.44H84.2218V27.392H92.5258V29.44ZM93.8563 27.392H96.3363V32.512L100.528 27.392H102.816V36H100.336V30.88L96.1603 36H93.8563V27.392Z" fill="#F6FAFD"/>
</svg>
